<svg width="1024" height="1024" viewBox="0 0 1024 1024" fill="none" xmlns="http://www.w3.org/2000/svg">
<path d="M351.48 758.58C383.074 798.093 415.251 847.776 432.09 877.786C452.597 916.799 461.099 943.14 476.354 990.322C485.274 1016.16 493.777 1024 511.616 1024C531.122 1024 540.042 1010.83 546.877 990.322C561.132 946.058 572.136 912.38 589.558 880.287C656.746 753.579 766.282 663.549 827.969 540.176C827.969 540.176 868.566 464.818 868.566 359.284C868.566 260.918 828.552 192.563 828.552 192.563L351.731 759.414L351.48 758.58Z" fill="#34A853"/>
<path d="M189.761 526.838C228.19 614.367 301.464 691.058 351.481 758.58L616.567 444.311C616.567 444.311 579.138 493.327 511.533 493.327C436.175 493.327 374.822 433.308 374.822 357.45C374.822 305.266 405.915 269.088 405.915 269.088C210.851 298.097 221.688 345.362 189.178 526.671L189.761 526.838Z" fill="#FBBC04"/>
<path d="M619.901 16.422C708.263 44.8479 783.288 104.784 828.302 192.313L616.567 444.895C616.567 444.895 647.66 408.55 647.66 356.533C647.66 279.091 582.306 220.655 511.783 220.655C444.844 220.655 406.749 269.088 406.749 269.088C423.004 232.076 590.975 29.0094 620.151 16.5054L619.901 16.422Z" fill="#4285F4"/>
<path d="M238.11 127.542C290.794 64.8544 383.158 0 510.699 0C572.302 0 619.068 16.3387 619.068 16.3387L406.498 268.921C392.16 261.143 252.282 152.216 238.11 127.208V127.542Z" fill="#1A73E8"/>
<path d="M189.761 526.838C189.761 526.838 155 457.816 155 358.45C155 264.253 191.845 181.726 238.36 128.375L406.749 270.088L190.011 526.838H189.761Z" fill="#EA4335"/>
</svg>
